<!--?xml version="1.0" standalone="no"?-->
              <svg id="sw-js-blob-svg" viewBox="0 0 100 100" xmlns="http://www.w3.org/2000/svg" version="1.1">
                    <defs> 
                        <linearGradient id="sw-gradient" x1="0" x2="1" y1="1" y2="0">
                            <stop id="stop1" stop-color="rgba(255, 32, 121, 1)" offset="0%"></stop>
                            <stop id="stop2" stop-color="rgba(68, 14, 180, 1)" offset="100%"></stop>
                        </linearGradient>
                    </defs>
                <path fill="url(#sw-gradient)" d="M8,-10C15.3,-7.8,29.3,-13.8,35.9,-12.5C42.5,-11.3,41.6,-2.7,36.8,2.7C32,8.2,23.4,10.5,17.9,13.9C12.4,17.3,10.1,21.7,6.7,22.8C3.2,23.9,-1.2,21.6,-4.2,18.7C-7.1,15.7,-8.5,12.2,-15.3,10.1C-22.1,8,-34.2,7.3,-38,3.4C-41.7,-0.5,-37,-7.6,-32.7,-14.1C-28.4,-20.5,-24.5,-26.2,-19.1,-29.2C-13.7,-32.2,-6.8,-32.5,-3.2,-27.4C0.4,-22.4,0.8,-12.1,8,-10Z" width="100%" height="100%" transform="translate(50 50)" stroke-width="0" style="transition: all 0.3s ease 0s;" stroke="url(#sw-gradient)"></path>
              </svg>