<!--?xml version="1.0" standalone="no"?-->
              <svg id="sw-js-blob-svg" viewBox="0 0 100 100" xmlns="http://www.w3.org/2000/svg" version="1.1">
                    <defs> 
                        <linearGradient id="sw-gradient" x1="0" x2="1" y1="1" y2="0">
                            <stop id="stop1" stop-color="rgba(255, 32, 121, 1)" offset="0%"></stop>
                            <stop id="stop2" stop-color="rgba(68, 14, 180, 1)" offset="100%"></stop>
                        </linearGradient>
                    </defs>
                <path fill="url(#sw-gradient)" d="M21.6,-32.5C25.9,-30.9,25.8,-21.3,23.5,-14.2C21.3,-7.2,16.9,-2.7,14.2,0.6C11.4,3.9,10.3,5.9,8.9,7.9C7.5,9.8,5.7,11.7,3.1,14.1C0.5,16.5,-3,19.4,-4.8,18.1C-6.6,16.8,-6.7,11.3,-9.8,8.2C-12.9,5.1,-19.1,4.4,-22,1.6C-24.8,-1.2,-24.4,-6.1,-23.1,-11.3C-21.9,-16.6,-19.9,-22.3,-16,-24C-12,-25.7,-6,-23.5,1.3,-25.6C8.7,-27.7,17.3,-34.1,21.6,-32.5Z" width="100%" height="100%" transform="translate(50 50)" stroke-width="0" style="transition: all 0.3s ease 0s;" stroke="url(#sw-gradient)"></path>
              </svg>